<mxfile host="app.diagrams.net" modified="2024-05-31T15:42:56.754Z" agent="Mozilla/5.0 (Windows NT 10.0; Win64; x64) AppleWebKit/537.36 (KHTML, like Gecko) Chrome/125.0.0.0 Safari/537.36" etag="nND2bYlW7pD-fvxNM8TY" version="24.4.13" type="device">
  <diagram id="C5RBs43oDa-KdzZeNtuy" name="Page-1">
    <mxGraphModel dx="819" dy="422" grid="1" gridSize="10" guides="1" tooltips="1" connect="1" arrows="1" fold="1" page="1" pageScale="1" pageWidth="827" pageHeight="1169" math="0" shadow="0">
      <root>
        <mxCell id="WIyWlLk6GJQsqaUBKTNV-0" />
        <mxCell id="WIyWlLk6GJQsqaUBKTNV-1" parent="WIyWlLk6GJQsqaUBKTNV-0" />
        <mxCell id="WIyWlLk6GJQsqaUBKTNV-2" value="" style="rounded=0;html=1;jettySize=auto;orthogonalLoop=1;fontSize=11;endArrow=block;endFill=0;endSize=8;strokeWidth=1;shadow=0;labelBackgroundColor=none;edgeStyle=orthogonalEdgeStyle;" parent="WIyWlLk6GJQsqaUBKTNV-1" source="WIyWlLk6GJQsqaUBKTNV-3" target="WIyWlLk6GJQsqaUBKTNV-6" edge="1">
          <mxGeometry relative="1" as="geometry" />
        </mxCell>
        <mxCell id="WIyWlLk6GJQsqaUBKTNV-3" value="Štart" style="rounded=1;whiteSpace=wrap;html=1;fontSize=12;glass=0;strokeWidth=1;shadow=0;" parent="WIyWlLk6GJQsqaUBKTNV-1" vertex="1">
          <mxGeometry x="160" y="80" width="120" height="40" as="geometry" />
        </mxCell>
        <mxCell id="WIyWlLk6GJQsqaUBKTNV-5" value="Nie" style="edgeStyle=orthogonalEdgeStyle;rounded=0;html=1;jettySize=auto;orthogonalLoop=1;fontSize=11;endArrow=block;endFill=0;endSize=8;strokeWidth=1;shadow=0;labelBackgroundColor=none;" parent="WIyWlLk6GJQsqaUBKTNV-1" source="WIyWlLk6GJQsqaUBKTNV-6" edge="1">
          <mxGeometry x="-0.208" y="10" relative="1" as="geometry">
            <mxPoint as="offset" />
            <mxPoint x="320" y="210" as="targetPoint" />
          </mxGeometry>
        </mxCell>
        <mxCell id="WIyWlLk6GJQsqaUBKTNV-6" value="Slepá ulica?" style="rhombus;whiteSpace=wrap;html=1;shadow=0;fontFamily=Helvetica;fontSize=12;align=center;strokeWidth=1;spacing=6;spacingTop=-4;" parent="WIyWlLk6GJQsqaUBKTNV-1" vertex="1">
          <mxGeometry x="170" y="170" width="100" height="80" as="geometry" />
        </mxCell>
        <mxCell id="WIyWlLk6GJQsqaUBKTNV-12" value="Zaboč doprava" style="rounded=1;whiteSpace=wrap;html=1;fontSize=12;glass=0;strokeWidth=1;shadow=0;" parent="WIyWlLk6GJQsqaUBKTNV-1" vertex="1">
          <mxGeometry x="310" y="290" width="120" height="40" as="geometry" />
        </mxCell>
        <mxCell id="PVIH-KgGcDnblGhNPX9Z-0" value="Otoč sa" style="rounded=1;whiteSpace=wrap;html=1;fontSize=12;glass=0;strokeWidth=1;shadow=0;" vertex="1" parent="WIyWlLk6GJQsqaUBKTNV-1">
          <mxGeometry x="160" y="290" width="120" height="40" as="geometry" />
        </mxCell>
        <mxCell id="PVIH-KgGcDnblGhNPX9Z-3" value="" style="group" vertex="1" connectable="0" parent="WIyWlLk6GJQsqaUBKTNV-1">
          <mxGeometry x="180" y="250" width="40" height="30" as="geometry" />
        </mxCell>
        <mxCell id="PVIH-KgGcDnblGhNPX9Z-1" value="" style="edgeStyle=orthogonalEdgeStyle;rounded=0;orthogonalLoop=1;jettySize=auto;html=1;" edge="1" parent="PVIH-KgGcDnblGhNPX9Z-3" source="WIyWlLk6GJQsqaUBKTNV-6" target="PVIH-KgGcDnblGhNPX9Z-0">
          <mxGeometry relative="1" as="geometry" />
        </mxCell>
        <mxCell id="PVIH-KgGcDnblGhNPX9Z-2" value="Áno" style="text;html=1;align=center;verticalAlign=middle;resizable=0;points=[];autosize=1;strokeColor=none;fillColor=none;" vertex="1" parent="PVIH-KgGcDnblGhNPX9Z-3">
          <mxGeometry width="40" height="30" as="geometry" />
        </mxCell>
        <mxCell id="PVIH-KgGcDnblGhNPX9Z-9" value="" style="group" vertex="1" connectable="0" parent="WIyWlLk6GJQsqaUBKTNV-1">
          <mxGeometry x="365" y="250" width="40" height="30" as="geometry" />
        </mxCell>
        <mxCell id="PVIH-KgGcDnblGhNPX9Z-8" value="Áno" style="text;html=1;align=center;verticalAlign=middle;resizable=0;points=[];autosize=1;strokeColor=none;fillColor=none;" vertex="1" parent="PVIH-KgGcDnblGhNPX9Z-9">
          <mxGeometry width="40" height="30" as="geometry" />
        </mxCell>
        <mxCell id="PVIH-KgGcDnblGhNPX9Z-14" value="" style="group" vertex="1" connectable="0" parent="WIyWlLk6GJQsqaUBKTNV-1">
          <mxGeometry x="414" y="178" width="40" height="30" as="geometry" />
        </mxCell>
        <mxCell id="PVIH-KgGcDnblGhNPX9Z-13" value="Nie" style="text;html=1;align=center;verticalAlign=middle;resizable=0;points=[];autosize=1;strokeColor=none;fillColor=none;" vertex="1" parent="PVIH-KgGcDnblGhNPX9Z-14">
          <mxGeometry width="40" height="30" as="geometry" />
        </mxCell>
        <mxCell id="PVIH-KgGcDnblGhNPX9Z-15" value="Zaboč doľava" style="rounded=1;whiteSpace=wrap;html=1;fontSize=12;glass=0;strokeWidth=1;shadow=0;" vertex="1" parent="WIyWlLk6GJQsqaUBKTNV-1">
          <mxGeometry x="460" y="290" width="120" height="40" as="geometry" />
        </mxCell>
        <mxCell id="PVIH-KgGcDnblGhNPX9Z-12" value="" style="edgeStyle=orthogonalEdgeStyle;rounded=0;orthogonalLoop=1;jettySize=auto;html=1;entryX=0;entryY=0.5;entryDx=0;entryDy=0;" edge="1" parent="WIyWlLk6GJQsqaUBKTNV-1" source="PVIH-KgGcDnblGhNPX9Z-4" target="PVIH-KgGcDnblGhNPX9Z-16">
          <mxGeometry relative="1" as="geometry">
            <mxPoint x="460" y="210" as="targetPoint" />
          </mxGeometry>
        </mxCell>
        <mxCell id="PVIH-KgGcDnblGhNPX9Z-19" value="" style="group" vertex="1" connectable="0" parent="WIyWlLk6GJQsqaUBKTNV-1">
          <mxGeometry x="470" y="170" width="100" height="80" as="geometry" />
        </mxCell>
        <mxCell id="PVIH-KgGcDnblGhNPX9Z-16" value="&lt;p style=&quot;line-height: 120%;&quot;&gt;&lt;br&gt;&lt;/p&gt;" style="rhombus;whiteSpace=wrap;html=1;shadow=0;fontFamily=Helvetica;fontSize=12;align=center;strokeWidth=1;spacing=6;spacingTop=-4;" vertex="1" parent="PVIH-KgGcDnblGhNPX9Z-19">
          <mxGeometry width="100" height="80" as="geometry" />
        </mxCell>
        <mxCell id="PVIH-KgGcDnblGhNPX9Z-18" value="Sú rovnako&amp;nbsp;&lt;div&gt;vzdialené?&lt;/div&gt;" style="text;html=1;align=center;verticalAlign=middle;resizable=0;points=[];autosize=1;strokeColor=none;fillColor=none;" vertex="1" parent="PVIH-KgGcDnblGhNPX9Z-19">
          <mxGeometry x="7" y="20" width="90" height="40" as="geometry" />
        </mxCell>
        <mxCell id="PVIH-KgGcDnblGhNPX9Z-20" value="" style="group" vertex="1" connectable="0" parent="WIyWlLk6GJQsqaUBKTNV-1">
          <mxGeometry x="320" y="170" width="100" height="80" as="geometry" />
        </mxCell>
        <mxCell id="PVIH-KgGcDnblGhNPX9Z-4" value="&lt;p style=&quot;line-height: 120%;&quot;&gt;&lt;br&gt;&lt;/p&gt;" style="rhombus;whiteSpace=wrap;html=1;shadow=0;fontFamily=Helvetica;fontSize=12;align=center;strokeWidth=1;spacing=6;spacingTop=-4;" vertex="1" parent="PVIH-KgGcDnblGhNPX9Z-20">
          <mxGeometry width="100" height="80" as="geometry" />
        </mxCell>
        <mxCell id="PVIH-KgGcDnblGhNPX9Z-6" value="Je ľavá stena bližšie ako pravá?" style="text;html=1;align=center;verticalAlign=middle;whiteSpace=wrap;rounded=0;" vertex="1" parent="PVIH-KgGcDnblGhNPX9Z-20">
          <mxGeometry x="15" y="20" width="70" height="30" as="geometry" />
        </mxCell>
        <mxCell id="PVIH-KgGcDnblGhNPX9Z-7" value="" style="edgeStyle=orthogonalEdgeStyle;rounded=0;orthogonalLoop=1;jettySize=auto;html=1;" edge="1" parent="WIyWlLk6GJQsqaUBKTNV-1" source="PVIH-KgGcDnblGhNPX9Z-4" target="WIyWlLk6GJQsqaUBKTNV-12">
          <mxGeometry relative="1" as="geometry" />
        </mxCell>
        <mxCell id="PVIH-KgGcDnblGhNPX9Z-22" value="" style="group" vertex="1" connectable="0" parent="WIyWlLk6GJQsqaUBKTNV-1">
          <mxGeometry x="520" y="250" width="40" height="30" as="geometry" />
        </mxCell>
        <mxCell id="PVIH-KgGcDnblGhNPX9Z-17" value="" style="edgeStyle=orthogonalEdgeStyle;rounded=0;orthogonalLoop=1;jettySize=auto;html=1;" edge="1" parent="PVIH-KgGcDnblGhNPX9Z-22" source="PVIH-KgGcDnblGhNPX9Z-16" target="PVIH-KgGcDnblGhNPX9Z-15">
          <mxGeometry relative="1" as="geometry" />
        </mxCell>
        <mxCell id="PVIH-KgGcDnblGhNPX9Z-21" value="Nie" style="text;html=1;align=center;verticalAlign=middle;resizable=0;points=[];autosize=1;strokeColor=none;fillColor=none;" vertex="1" parent="PVIH-KgGcDnblGhNPX9Z-22">
          <mxGeometry width="40" height="30" as="geometry" />
        </mxCell>
        <mxCell id="PVIH-KgGcDnblGhNPX9Z-23" value="Udržuj smer" style="rounded=1;whiteSpace=wrap;html=1;fontSize=12;glass=0;strokeWidth=1;shadow=0;" vertex="1" parent="WIyWlLk6GJQsqaUBKTNV-1">
          <mxGeometry x="610" y="190" width="120" height="40" as="geometry" />
        </mxCell>
        <mxCell id="PVIH-KgGcDnblGhNPX9Z-28" value="" style="group" vertex="1" connectable="0" parent="WIyWlLk6GJQsqaUBKTNV-1">
          <mxGeometry x="560" y="178" width="40" height="30" as="geometry" />
        </mxCell>
        <mxCell id="PVIH-KgGcDnblGhNPX9Z-26" value="" style="edgeStyle=orthogonalEdgeStyle;rounded=0;orthogonalLoop=1;jettySize=auto;html=1;" edge="1" parent="PVIH-KgGcDnblGhNPX9Z-28" source="PVIH-KgGcDnblGhNPX9Z-16" target="PVIH-KgGcDnblGhNPX9Z-23">
          <mxGeometry relative="1" as="geometry" />
        </mxCell>
        <mxCell id="PVIH-KgGcDnblGhNPX9Z-27" value="Áno" style="text;html=1;align=center;verticalAlign=middle;resizable=0;points=[];autosize=1;strokeColor=none;fillColor=none;" vertex="1" parent="PVIH-KgGcDnblGhNPX9Z-28">
          <mxGeometry width="40" height="30" as="geometry" />
        </mxCell>
      </root>
    </mxGraphModel>
  </diagram>
</mxfile>
